<svg xmlns="http://www.w3.org/2000/svg" xmlns:xlink="http://www.w3.org/1999/xlink" width="30" zoomAndPan="magnify" viewBox="0 0 22.5 19.5" height="26" preserveAspectRatio="xMidYMid meet" version="1.0">
  <defs>
    <clipPath id="fb7d269fff">
      <path d="M 0.0390625 0 L 13 0 L 13 19 L 0.0390625 19 Z M 0.0390625 0 " clip-rule="nonzero" />
    </clipPath>
    <clipPath id="6527ad90a9">
      <path d="M 8 0 L 21.242188 0 L 21.242188 19 L 8 19 Z M 8 0 " clip-rule="nonzero" />
    </clipPath>
  </defs>
  <g clip-path="url(#fb7d269fff)">
    <path fill="currentColor" d="M 0.0546875 0.0234375 L 0.0390625 18.664062 L 12.984375 9.359375 Z M 0.0546875 0.0234375 " fill-opacity="1" fill-rule="nonzero" />
  </g>
  <path fill="currentColor" d="M 4.40625 0.296875 L 16.957031 9.359375 L 4.398438 18.382812 L 4.40625 0.296875 M 4.40625 0 C 4.359375 0 4.316406 0.0078125 4.273438 0.03125 C 4.175781 0.0820312 4.109375 0.183594 4.109375 0.296875 L 4.101562 18.382812 C 4.101562 18.492188 4.160156 18.597656 4.265625 18.648438 C 4.308594 18.671875 4.355469 18.679688 4.398438 18.679688 C 4.457031 18.679688 4.515625 18.65625 4.566406 18.617188 L 17.128906 9.597656 C 17.203125 9.539062 17.253906 9.449219 17.253906 9.359375 C 17.253906 9.265625 17.210938 9.175781 17.128906 9.125 L 4.582031 0.0585938 C 4.53125 0.0234375 4.472656 0 4.40625 0 Z M 4.40625 0 " fill-opacity="1" fill-rule="nonzero" />
  <g clip-path="url(#6527ad90a9)">
    <path fill="currentColor" d="M 8.574219 0.308594 L 21.117188 9.375 L 8.558594 18.398438 L 8.574219 0.308594 M 8.574219 0.015625 C 8.527344 0.015625 8.484375 0.0234375 8.441406 0.0429688 C 8.34375 0.0976562 8.277344 0.199219 8.277344 0.308594 L 8.261719 18.398438 C 8.261719 18.507812 8.320312 18.609375 8.425781 18.664062 C 8.46875 18.683594 8.511719 18.691406 8.558594 18.691406 C 8.617188 18.691406 8.675781 18.671875 8.726562 18.632812 L 21.289062 9.613281 C 21.363281 9.554688 21.414062 9.464844 21.414062 9.375 C 21.414062 9.28125 21.371094 9.191406 21.289062 9.140625 L 8.75 0.0742188 C 8.699219 0.0351562 8.632812 0.015625 8.574219 0.015625 Z M 8.574219 0.015625 " fill-opacity="1" fill-rule="nonzero" />
  </g>
</svg>