<svg xmlns="http://www.w3.org/2000/svg" xmlns:xlink="http://www.w3.org/1999/xlink" width="96" zoomAndPan="magnify" viewBox="0 0 72 60.75" height="81" preserveAspectRatio="xMidYMid meet" version="1.0">
  <defs>
    <clipPath id="94c0c7c4b0">
      <path d="M 0.148438 0 L 60.316406 0 L 60.316406 46.394531 L 0.148438 46.394531 Z M 0.148438 0 " clip-rule="nonzero" />
    </clipPath>
    <clipPath id="1b134f2354">
      <path d="M 8.363281 0 L 52.003906 0 C 54.183594 0 56.273438 0.867188 57.816406 2.40625 C 59.355469 3.949219 60.222656 6.039062 60.222656 8.214844 L 60.222656 38.179688 C 60.222656 40.359375 59.355469 42.449219 57.816406 43.988281 C 56.273438 45.53125 54.183594 46.394531 52.003906 46.394531 L 8.363281 46.394531 C 6.183594 46.394531 4.09375 45.53125 2.554688 43.988281 C 1.011719 42.449219 0.148438 40.359375 0.148438 38.179688 L 0.148438 8.214844 C 0.148438 6.039062 1.011719 3.949219 2.554688 2.40625 C 4.09375 0.867188 6.183594 0 8.363281 0 Z M 8.363281 0 " clip-rule="nonzero" />
    </clipPath>
    <clipPath id="b6baacce3e">
      <path d="M 10.796875 13.992188 L 71.507812 13.992188 L 71.507812 60.386719 L 10.796875 60.386719 Z M 10.796875 13.992188 " clip-rule="nonzero" />
    </clipPath>
    <clipPath id="0a0c70f96e">
      <path d="M 19.011719 13.992188 L 63.230469 13.992188 C 65.40625 13.992188 67.496094 14.859375 69.039062 16.398438 C 70.578125 17.941406 71.445312 20.03125 71.445312 22.210938 L 71.445312 52.171875 C 71.445312 54.351562 70.578125 56.441406 69.039062 57.980469 C 67.496094 59.523438 65.40625 60.386719 63.230469 60.386719 L 19.011719 60.386719 C 16.835938 60.386719 14.746094 59.523438 13.203125 57.980469 C 11.664062 56.441406 10.796875 54.351562 10.796875 52.171875 L 10.796875 22.210938 C 10.796875 20.03125 11.664062 17.941406 13.203125 16.398438 C 14.746094 14.859375 16.835938 13.992188 19.011719 13.992188 Z M 19.011719 13.992188 " clip-rule="nonzero" />
    </clipPath>
  </defs>
  <g clip-path="url(#94c0c7c4b0)">
    <g clip-path="url(#1b134f2354)">
      <path fill="#535e9a" d="M 0.148438 0 L 60.136719 0 L 60.136719 46.394531 L 0.148438 46.394531 Z M 0.148438 0 " fill-opacity="1" fill-rule="nonzero" />
    </g>
  </g>
  <g clip-path="url(#b6baacce3e)">
    <g clip-path="url(#0a0c70f96e)">
      <path fill="#28c4df" d="M 10.796875 13.992188 L 71.507812 13.992188 L 71.507812 60.386719 L 10.796875 60.386719 Z M 10.796875 13.992188 " fill-opacity="1" fill-rule="nonzero" />
    </g>
  </g>
</svg>