<svg xmlns="http://www.w3.org/2000/svg" xmlns:xlink="http://www.w3.org/1999/xlink" width="149" zoomAndPan="magnify" viewBox="0 0 111.75 61.499998" height="82" preserveAspectRatio="xMidYMid meet" version="1.0">
  <defs>
    <clipPath id="a6635f8c58">
      <path d="M 0.328125 0 L 110.429688 0 L 110.429688 60.261719 L 0.328125 60.261719 Z M 0.328125 0 " clip-rule="nonzero" />
    </clipPath>
  </defs>
  <g clip-path="url(#a6635f8c58)">
    <path fill="#6ba1fe" d="M 2.71875 1.21875 C 2.71875 1.371094 2.691406 1.515625 2.632812 1.65625 C 2.578125 1.792969 2.496094 1.917969 2.386719 2.023438 C 2.28125 2.128906 2.160156 2.210938 2.019531 2.269531 C 1.882812 2.324219 1.734375 2.355469 1.585938 2.355469 C 1.433594 2.355469 1.289062 2.324219 1.152344 2.265625 C 1.011719 2.210938 0.890625 2.128906 0.785156 2.019531 C 0.679688 1.914062 0.597656 1.792969 0.539062 1.652344 C 0.480469 1.515625 0.453125 1.367188 0.453125 1.21875 C 0.453125 1.066406 0.484375 0.921875 0.539062 0.785156 C 0.597656 0.644531 0.679688 0.523438 0.785156 0.417969 C 0.894531 0.3125 1.015625 0.230469 1.15625 0.171875 C 1.292969 0.113281 1.4375 0.0859375 1.589844 0.0859375 C 1.738281 0.0859375 1.882812 0.117188 2.023438 0.175781 C 2.160156 0.230469 2.285156 0.3125 2.390625 0.421875 C 2.496094 0.527344 2.578125 0.648438 2.632812 0.789062 C 2.691406 0.925781 2.71875 1.070312 2.71875 1.21875 Z M 13.582031 0.0859375 C 13.429688 0.0859375 13.285156 0.113281 13.144531 0.171875 C 13.007812 0.230469 12.882812 0.3125 12.777344 0.417969 C 12.671875 0.523438 12.589844 0.644531 12.53125 0.785156 C 12.472656 0.921875 12.445312 1.066406 12.445312 1.21875 C 12.445312 1.367188 12.472656 1.515625 12.53125 1.652344 C 12.585938 1.792969 12.667969 1.914062 12.773438 2.019531 C 12.882812 2.128906 13.003906 2.210938 13.140625 2.265625 C 13.28125 2.324219 13.425781 2.355469 13.578125 2.355469 C 13.726562 2.355469 13.871094 2.324219 14.011719 2.269531 C 14.148438 2.210938 14.273438 2.128906 14.378906 2.023438 C 14.484375 1.917969 14.566406 1.792969 14.625 1.65625 C 14.683594 1.515625 14.710938 1.371094 14.710938 1.21875 C 14.710938 1.070312 14.683594 0.925781 14.625 0.789062 C 14.566406 0.648438 14.484375 0.527344 14.378906 0.421875 C 14.273438 0.3125 14.152344 0.230469 14.011719 0.175781 C 13.875 0.117188 13.730469 0.0859375 13.582031 0.0859375 Z M 25.566406 0.0859375 C 25.417969 0.0859375 25.273438 0.117188 25.132812 0.171875 C 24.996094 0.230469 24.871094 0.3125 24.765625 0.417969 C 24.660156 0.523438 24.578125 0.648438 24.519531 0.785156 C 24.464844 0.925781 24.433594 1.070312 24.433594 1.21875 C 24.433594 1.371094 24.464844 1.515625 24.519531 1.65625 C 24.578125 1.792969 24.660156 1.914062 24.765625 2.023438 C 24.871094 2.128906 24.996094 2.210938 25.132812 2.269531 C 25.273438 2.324219 25.417969 2.355469 25.566406 2.355469 C 25.71875 2.355469 25.863281 2.324219 26 2.269531 C 26.140625 2.210938 26.261719 2.128906 26.371094 2.023438 C 26.476562 1.914062 26.558594 1.792969 26.617188 1.65625 C 26.671875 1.515625 26.703125 1.371094 26.703125 1.21875 C 26.703125 1.070312 26.671875 0.925781 26.617188 0.785156 C 26.558594 0.648438 26.476562 0.523438 26.371094 0.417969 C 26.261719 0.3125 26.140625 0.230469 26 0.171875 C 25.863281 0.117188 25.71875 0.0859375 25.566406 0.0859375 Z M 37.566406 0.0859375 C 37.414062 0.0859375 37.269531 0.117188 37.128906 0.171875 C 36.992188 0.230469 36.871094 0.3125 36.761719 0.417969 C 36.65625 0.523438 36.574219 0.648438 36.515625 0.785156 C 36.460938 0.925781 36.429688 1.070312 36.429688 1.21875 C 36.429688 1.371094 36.460938 1.515625 36.515625 1.65625 C 36.574219 1.792969 36.65625 1.914062 36.761719 2.023438 C 36.871094 2.128906 36.992188 2.210938 37.128906 2.269531 C 37.269531 2.324219 37.414062 2.355469 37.566406 2.355469 C 37.714844 2.355469 37.859375 2.324219 38 2.269531 C 38.136719 2.210938 38.261719 2.128906 38.367188 2.023438 C 38.472656 1.914062 38.554688 1.792969 38.613281 1.65625 C 38.667969 1.515625 38.699219 1.371094 38.699219 1.21875 C 38.699219 1.070312 38.667969 0.925781 38.613281 0.785156 C 38.554688 0.648438 38.472656 0.523438 38.367188 0.417969 C 38.261719 0.3125 38.136719 0.230469 38 0.171875 C 37.859375 0.117188 37.714844 0.0859375 37.566406 0.0859375 Z M 49.554688 0.0859375 C 49.40625 0.0859375 49.261719 0.117188 49.121094 0.171875 C 48.984375 0.230469 48.859375 0.3125 48.753906 0.417969 C 48.648438 0.523438 48.566406 0.648438 48.507812 0.785156 C 48.449219 0.925781 48.421875 1.070312 48.421875 1.21875 C 48.421875 1.371094 48.449219 1.515625 48.507812 1.65625 C 48.566406 1.792969 48.648438 1.914062 48.753906 2.023438 C 48.859375 2.128906 48.984375 2.210938 49.121094 2.269531 C 49.261719 2.324219 49.40625 2.355469 49.554688 2.355469 C 49.707031 2.355469 49.851562 2.324219 49.988281 2.269531 C 50.128906 2.210938 50.25 2.128906 50.355469 2.023438 C 50.464844 1.914062 50.542969 1.792969 50.601562 1.65625 C 50.660156 1.515625 50.6875 1.371094 50.6875 1.21875 C 50.6875 1.070312 50.660156 0.925781 50.601562 0.785156 C 50.542969 0.644531 50.460938 0.523438 50.355469 0.417969 C 50.246094 0.3125 50.125 0.230469 49.984375 0.171875 C 49.84375 0.113281 49.699219 0.0859375 49.550781 0.0859375 Z M 61.539062 0.0859375 C 61.390625 0.0859375 61.246094 0.113281 61.105469 0.171875 C 60.964844 0.230469 60.84375 0.3125 60.738281 0.417969 C 60.628906 0.523438 60.546875 0.644531 60.492188 0.785156 C 60.433594 0.921875 60.402344 1.066406 60.402344 1.21875 C 60.402344 1.367188 60.433594 1.515625 60.488281 1.652344 C 60.546875 1.792969 60.628906 1.914062 60.734375 2.019531 C 60.839844 2.128906 60.964844 2.210938 61.101562 2.265625 C 61.242188 2.324219 61.386719 2.355469 61.535156 2.355469 C 61.6875 2.355469 61.832031 2.324219 61.96875 2.269531 C 62.109375 2.210938 62.230469 2.128906 62.339844 2.023438 C 62.445312 1.917969 62.527344 1.792969 62.585938 1.65625 C 62.640625 1.515625 62.671875 1.371094 62.671875 1.21875 C 62.671875 1.070312 62.640625 0.925781 62.585938 0.789062 C 62.527344 0.648438 62.445312 0.527344 62.339844 0.421875 C 62.234375 0.3125 62.113281 0.230469 61.972656 0.175781 C 61.835938 0.117188 61.691406 0.0859375 61.539062 0.0859375 Z M 73.53125 0.0859375 C 73.378906 0.0898438 73.238281 0.117188 73.097656 0.175781 C 72.960938 0.234375 72.839844 0.316406 72.734375 0.425781 C 72.628906 0.53125 72.546875 0.652344 72.488281 0.792969 C 72.433594 0.933594 72.40625 1.078125 72.40625 1.226562 C 72.40625 1.375 72.4375 1.519531 72.492188 1.660156 C 72.550781 1.796875 72.632812 1.917969 72.742188 2.023438 C 72.847656 2.128906 72.96875 2.210938 73.109375 2.269531 C 73.246094 2.324219 73.390625 2.355469 73.542969 2.355469 C 73.691406 2.355469 73.835938 2.324219 73.976562 2.265625 C 74.113281 2.210938 74.234375 2.128906 74.34375 2.019531 C 74.449219 1.914062 74.53125 1.792969 74.585938 1.652344 C 74.644531 1.515625 74.671875 1.371094 74.671875 1.21875 C 74.671875 1.070312 74.644531 0.925781 74.585938 0.785156 C 74.527344 0.644531 74.445312 0.523438 74.335938 0.414062 C 74.230469 0.308594 74.105469 0.226562 73.96875 0.171875 C 73.828125 0.113281 73.683594 0.0859375 73.53125 0.0859375 Z M 85.519531 0.0859375 C 85.367188 0.0859375 85.222656 0.117188 85.085938 0.171875 C 84.945312 0.230469 84.824219 0.3125 84.71875 0.417969 C 84.609375 0.523438 84.527344 0.648438 84.472656 0.785156 C 84.414062 0.925781 84.386719 1.070312 84.386719 1.21875 C 84.386719 1.371094 84.414062 1.515625 84.472656 1.65625 C 84.527344 1.792969 84.609375 1.914062 84.71875 2.023438 C 84.824219 2.128906 84.945312 2.210938 85.085938 2.269531 C 85.222656 2.324219 85.367188 2.355469 85.519531 2.355469 C 85.667969 2.355469 85.8125 2.324219 85.953125 2.269531 C 86.089844 2.210938 86.214844 2.128906 86.320312 2.023438 C 86.425781 1.914062 86.507812 1.792969 86.566406 1.65625 C 86.625 1.515625 86.652344 1.371094 86.652344 1.21875 C 86.652344 1.070312 86.625 0.925781 86.566406 0.785156 C 86.507812 0.648438 86.425781 0.523438 86.320312 0.417969 C 86.214844 0.3125 86.089844 0.230469 85.953125 0.171875 C 85.8125 0.117188 85.667969 0.0859375 85.519531 0.0859375 Z M 97.507812 0.0859375 C 97.359375 0.0859375 97.214844 0.117188 97.074219 0.171875 C 96.9375 0.230469 96.8125 0.3125 96.707031 0.417969 C 96.601562 0.523438 96.519531 0.648438 96.460938 0.785156 C 96.402344 0.925781 96.375 1.070312 96.375 1.21875 C 96.375 1.371094 96.402344 1.515625 96.460938 1.65625 C 96.519531 1.792969 96.601562 1.914062 96.707031 2.023438 C 96.8125 2.128906 96.9375 2.210938 97.074219 2.269531 C 97.214844 2.324219 97.359375 2.355469 97.507812 2.355469 C 97.660156 2.355469 97.804688 2.324219 97.941406 2.269531 C 98.082031 2.210938 98.203125 2.128906 98.3125 2.023438 C 98.417969 1.914062 98.5 1.792969 98.554688 1.65625 C 98.613281 1.515625 98.644531 1.371094 98.644531 1.21875 C 98.644531 1.070312 98.613281 0.925781 98.554688 0.785156 C 98.5 0.648438 98.417969 0.523438 98.3125 0.417969 C 98.203125 0.3125 98.082031 0.230469 97.941406 0.171875 C 97.804688 0.117188 97.660156 0.0859375 97.507812 0.0859375 Z M 109.5 2.351562 C 109.648438 2.351562 109.792969 2.324219 109.933594 2.265625 C 110.074219 2.207031 110.195312 2.125 110.300781 2.019531 C 110.40625 1.914062 110.488281 1.789062 110.546875 1.652344 C 110.605469 1.511719 110.632812 1.367188 110.632812 1.214844 C 110.632812 1.066406 110.605469 0.921875 110.546875 0.78125 C 110.488281 0.644531 110.40625 0.519531 110.300781 0.414062 C 110.195312 0.308594 110.070312 0.226562 109.933594 0.167969 C 109.792969 0.113281 109.648438 0.0820312 109.496094 0.0859375 C 109.347656 0.0859375 109.203125 0.113281 109.0625 0.171875 C 108.925781 0.230469 108.800781 0.3125 108.695312 0.417969 C 108.589844 0.523438 108.507812 0.648438 108.453125 0.785156 C 108.394531 0.925781 108.367188 1.070312 108.367188 1.21875 C 108.367188 1.371094 108.394531 1.515625 108.453125 1.652344 C 108.511719 1.792969 108.59375 1.914062 108.699219 2.019531 C 108.804688 2.125 108.929688 2.207031 109.066406 2.265625 C 109.207031 2.324219 109.351562 2.351562 109.5 2.351562 Z M 1.589844 11.683594 C 1.4375 11.683594 1.292969 11.710938 1.15625 11.769531 C 1.015625 11.824219 0.894531 11.90625 0.785156 12.011719 C 0.679688 12.121094 0.597656 12.242188 0.539062 12.382812 C 0.484375 12.519531 0.453125 12.664062 0.453125 12.816406 C 0.453125 12.964844 0.480469 13.109375 0.539062 13.25 C 0.597656 13.386719 0.679688 13.511719 0.785156 13.617188 C 0.890625 13.722656 1.011719 13.804688 1.152344 13.863281 C 1.289062 13.921875 1.433594 13.949219 1.585938 13.949219 C 1.734375 13.949219 1.882812 13.921875 2.019531 13.863281 C 2.160156 13.808594 2.28125 13.726562 2.386719 13.617188 C 2.496094 13.511719 2.578125 13.390625 2.632812 13.25 C 2.691406 13.113281 2.71875 12.96875 2.71875 12.816406 C 2.71875 12.667969 2.691406 12.523438 2.632812 12.382812 C 2.578125 12.246094 2.496094 12.121094 2.390625 12.015625 C 2.285156 11.910156 2.160156 11.828125 2.023438 11.769531 C 1.882812 11.710938 1.738281 11.683594 1.589844 11.683594 Z M 13.582031 11.683594 C 13.429688 11.683594 13.285156 11.710938 13.144531 11.769531 C 13.007812 11.824219 12.882812 11.90625 12.777344 12.011719 C 12.671875 12.121094 12.589844 12.242188 12.53125 12.382812 C 12.472656 12.519531 12.445312 12.664062 12.445312 12.816406 C 12.445312 12.964844 12.472656 13.109375 12.53125 13.25 C 12.585938 13.386719 12.667969 13.511719 12.773438 13.617188 C 12.882812 13.722656 13.003906 13.804688 13.140625 13.863281 C 13.28125 13.921875 13.425781 13.949219 13.578125 13.949219 C 13.726562 13.949219 13.871094 13.921875 14.011719 13.863281 C 14.148438 13.808594 14.273438 13.726562 14.378906 13.617188 C 14.484375 13.511719 14.566406 13.390625 14.625 13.25 C 14.683594 13.113281 14.710938 12.96875 14.710938 12.816406 C 14.710938 12.667969 14.683594 12.523438 14.625 12.382812 C 14.566406 12.246094 14.484375 12.121094 14.378906 12.015625 C 14.273438 11.910156 14.152344 11.828125 14.011719 11.769531 C 13.875 11.710938 13.730469 11.683594 13.582031 11.683594 Z M 25.566406 11.683594 C 25.417969 11.683594 25.273438 11.710938 25.132812 11.769531 C 24.996094 11.828125 24.871094 11.910156 24.765625 12.015625 C 24.660156 12.121094 24.578125 12.246094 24.519531 12.382812 C 24.464844 12.523438 24.433594 12.667969 24.433594 12.816406 C 24.433594 12.96875 24.464844 13.113281 24.519531 13.25 C 24.578125 13.390625 24.660156 13.511719 24.765625 13.617188 C 24.871094 13.726562 24.996094 13.804688 25.132812 13.863281 C 25.273438 13.921875 25.417969 13.949219 25.566406 13.949219 C 25.71875 13.949219 25.863281 13.921875 26 13.863281 C 26.140625 13.804688 26.261719 13.726562 26.371094 13.617188 C 26.476562 13.511719 26.558594 13.390625 26.617188 13.25 C 26.671875 13.113281 26.703125 12.96875 26.703125 12.816406 C 26.703125 12.667969 26.671875 12.523438 26.617188 12.382812 C 26.558594 12.246094 26.476562 12.121094 26.371094 12.015625 C 26.261719 11.910156 26.140625 11.828125 26 11.769531 C 25.863281 11.710938 25.71875 11.683594 25.566406 11.683594 Z M 37.566406 11.683594 C 37.414062 11.683594 37.269531 11.710938 37.128906 11.769531 C 36.992188 11.828125 36.871094 11.910156 36.761719 12.015625 C 36.65625 12.121094 36.574219 12.246094 36.515625 12.382812 C 36.460938 12.523438 36.429688 12.667969 36.429688 12.816406 C 36.429688 12.96875 36.460938 13.113281 36.515625 13.25 C 36.574219 13.390625 36.65625 13.511719 36.761719 13.617188 C 36.871094 13.726562 36.992188 13.804688 37.128906 13.863281 C 37.269531 13.921875 37.414062 13.949219 37.566406 13.949219 C 37.714844 13.949219 37.859375 13.921875 38 13.863281 C 38.136719 13.804688 38.261719 13.726562 38.367188 13.617188 C 38.472656 13.511719 38.554688 13.390625 38.613281 13.25 C 38.667969 13.113281 38.699219 12.96875 38.699219 12.816406 C 38.699219 12.667969 38.667969 12.523438 38.613281 12.382812 C 38.554688 12.246094 38.472656 12.121094 38.367188 12.015625 C 38.261719 11.910156 38.136719 11.828125 38 11.769531 C 37.859375 11.710938 37.714844 11.683594 37.566406 11.683594 Z M 49.554688 11.683594 C 49.40625 11.683594 49.261719 11.710938 49.121094 11.769531 C 48.984375 11.828125 48.859375 11.910156 48.753906 12.015625 C 48.648438 12.121094 48.566406 12.246094 48.507812 12.382812 C 48.449219 12.523438 48.421875 12.667969 48.421875 12.816406 C 48.421875 12.96875 48.449219 13.113281 48.507812 13.25 C 48.566406 13.390625 48.648438 13.511719 48.753906 13.617188 C 48.859375 13.726562 48.984375 13.804688 49.121094 13.863281 C 49.261719 13.921875 49.40625 13.949219 49.554688 13.949219 C 49.707031 13.949219 49.851562 13.921875 49.988281 13.863281 C 50.128906 13.804688 50.25 13.726562 50.355469 13.617188 C 50.464844 13.511719 50.542969 13.390625 50.601562 13.25 C 50.660156 13.113281 50.6875 12.96875 50.6875 12.816406 C 50.6875 12.667969 50.660156 12.519531 50.601562 12.382812 C 50.542969 12.242188 50.460938 12.121094 50.355469 12.011719 C 50.246094 11.90625 50.125 11.824219 49.984375 11.769531 C 49.84375 11.710938 49.699219 11.683594 49.550781 11.683594 Z M 61.546875 11.683594 C 61.394531 11.683594 61.25 11.710938 61.113281 11.769531 C 60.972656 11.824219 60.851562 11.90625 60.742188 12.011719 C 60.636719 12.121094 60.554688 12.242188 60.496094 12.382812 C 60.4375 12.519531 60.410156 12.664062 60.410156 12.816406 C 60.410156 12.964844 60.4375 13.109375 60.496094 13.25 C 60.550781 13.386719 60.632812 13.511719 60.742188 13.617188 C 60.847656 13.722656 60.96875 13.804688 61.109375 13.863281 C 61.246094 13.921875 61.390625 13.949219 61.542969 13.949219 C 61.691406 13.949219 61.835938 13.921875 61.976562 13.863281 C 62.113281 13.808594 62.238281 13.726562 62.34375 13.617188 C 62.449219 13.511719 62.53125 13.390625 62.589844 13.25 C 62.648438 13.113281 62.675781 12.96875 62.675781 12.816406 C 62.675781 12.667969 62.648438 12.523438 62.589844 12.382812 C 62.53125 12.242188 62.449219 12.121094 62.34375 12.015625 C 62.238281 11.90625 62.113281 11.824219 61.976562 11.769531 C 61.835938 11.710938 61.691406 11.683594 61.539062 11.683594 Z M 73.535156 11.683594 C 73.386719 11.683594 73.242188 11.710938 73.101562 11.769531 C 72.964844 11.824219 72.839844 11.90625 72.734375 12.011719 C 72.628906 12.121094 72.546875 12.242188 72.488281 12.382812 C 72.429688 12.519531 72.398438 12.664062 72.398438 12.816406 C 72.398438 12.964844 72.429688 13.109375 72.484375 13.25 C 72.542969 13.386719 72.625 13.511719 72.730469 13.617188 C 72.835938 13.722656 72.960938 13.804688 73.097656 13.863281 C 73.238281 13.921875 73.382812 13.949219 73.53125 13.949219 C 73.683594 13.949219 73.828125 13.921875 73.964844 13.863281 C 74.105469 13.808594 74.226562 13.726562 74.335938 13.617188 C 74.441406 13.511719 74.523438 13.390625 74.582031 13.25 C 74.636719 13.113281 74.667969 12.96875 74.667969 12.816406 C 74.667969 12.667969 74.636719 12.523438 74.582031 12.382812 C 74.523438 12.242188 74.441406 12.121094 74.335938 12.015625 C 74.226562 11.90625 74.105469 11.824219 73.964844 11.769531 C 73.824219 11.710938 73.679688 11.683594 73.53125 11.683594 Z M 85.523438 11.683594 C 85.375 11.683594 85.230469 11.710938 85.089844 11.769531 C 84.953125 11.828125 84.828125 11.910156 84.722656 12.015625 C 84.617188 12.121094 84.535156 12.246094 84.476562 12.382812 C 84.417969 12.523438 84.390625 12.667969 84.390625 12.816406 C 84.390625 12.96875 84.417969 13.113281 84.476562 13.25 C 84.535156 13.390625 84.617188 13.511719 84.722656 13.617188 C 84.828125 13.726562 84.953125 13.804688 85.089844 13.863281 C 85.230469 13.921875 85.375 13.949219 85.523438 13.949219 C 85.675781 13.949219 85.820312 13.921875 85.957031 13.863281 C 86.097656 13.804688 86.21875 13.726562 86.324219 13.617188 C 86.433594 13.511719 86.515625 13.390625 86.570312 13.25 C 86.628906 13.113281 86.65625 12.96875 86.65625 12.816406 C 86.65625 12.667969 86.628906 12.519531 86.570312 12.382812 C 86.511719 12.242188 86.429688 12.121094 86.324219 12.011719 C 86.214844 11.90625 86.09375 11.824219 85.953125 11.769531 C 85.8125 11.710938 85.667969 11.683594 85.519531 11.683594 Z M 97.515625 11.683594 C 97.363281 11.683594 97.21875 11.710938 97.082031 11.769531 C 96.941406 11.828125 96.820312 11.910156 96.714844 12.015625 C 96.605469 12.121094 96.523438 12.246094 96.46875 12.382812 C 96.410156 12.523438 96.382812 12.667969 96.382812 12.816406 C 96.382812 12.96875 96.410156 13.113281 96.46875 13.25 C 96.523438 13.390625 96.605469 13.511719 96.714844 13.617188 C 96.820312 13.726562 96.941406 13.804688 97.082031 13.863281 C 97.21875 13.921875 97.363281 13.949219 97.515625 13.949219 C 97.664062 13.949219 97.808594 13.921875 97.949219 13.863281 C 98.085938 13.804688 98.210938 13.726562 98.316406 13.617188 C 98.421875 13.511719 98.503906 13.390625 98.5625 13.25 C 98.621094 13.113281 98.648438 12.96875 98.648438 12.816406 C 98.648438 12.667969 98.621094 12.519531 98.5625 12.382812 C 98.503906 12.242188 98.421875 12.121094 98.3125 12.011719 C 98.207031 11.90625 98.085938 11.824219 97.945312 11.769531 C 97.804688 11.710938 97.660156 11.683594 97.507812 11.683594 Z M 109.503906 11.683594 C 109.355469 11.679688 109.210938 11.707031 109.070312 11.761719 C 108.929688 11.820312 108.804688 11.898438 108.699219 12.003906 C 108.589844 12.109375 108.507812 12.230469 108.445312 12.371094 C 108.386719 12.507812 108.355469 12.652344 108.355469 12.804688 C 108.351562 12.953125 108.378906 13.097656 108.4375 13.238281 C 108.492188 13.378906 108.574219 13.503906 108.679688 13.609375 C 108.785156 13.71875 108.90625 13.800781 109.042969 13.859375 C 109.183594 13.917969 109.328125 13.949219 109.476562 13.949219 C 109.628906 13.953125 109.773438 13.925781 109.914062 13.867188 C 110.054688 13.8125 110.175781 13.730469 110.285156 13.625 C 110.390625 13.519531 110.472656 13.394531 110.53125 13.257812 C 110.589844 13.117188 110.621094 12.972656 110.621094 12.824219 C 110.621094 12.671875 110.59375 12.527344 110.539062 12.390625 C 110.480469 12.25 110.402344 12.128906 110.296875 12.019531 C 110.191406 11.914062 110.070312 11.832031 109.929688 11.773438 C 109.792969 11.714844 109.648438 11.683594 109.5 11.683594 Z M 1.589844 23.292969 C 1.441406 23.292969 1.296875 23.320312 1.15625 23.378906 C 1.015625 23.4375 0.894531 23.515625 0.789062 23.625 C 0.683594 23.730469 0.597656 23.851562 0.542969 23.988281 C 0.484375 24.128906 0.453125 24.273438 0.453125 24.421875 C 0.453125 24.570312 0.480469 24.714844 0.539062 24.855469 C 0.59375 24.996094 0.675781 25.117188 0.78125 25.222656 C 0.886719 25.332031 1.007812 25.414062 1.144531 25.472656 C 1.285156 25.53125 1.429688 25.558594 1.578125 25.5625 C 1.726562 25.5625 1.871094 25.535156 2.011719 25.480469 C 2.152344 25.421875 2.273438 25.339844 2.382812 25.238281 C 2.488281 25.132812 2.570312 25.007812 2.628906 24.871094 C 2.6875 24.734375 2.71875 24.589844 2.71875 24.4375 C 2.722656 24.289062 2.695312 24.144531 2.636719 24.003906 C 2.582031 23.863281 2.5 23.738281 2.394531 23.632812 C 2.289062 23.523438 2.164062 23.441406 2.023438 23.382812 C 1.886719 23.324219 1.742188 23.292969 1.589844 23.292969 Z M 13.582031 23.292969 C 13.429688 23.292969 13.285156 23.324219 13.144531 23.378906 C 13.007812 23.4375 12.882812 23.519531 12.777344 23.625 C 12.671875 23.730469 12.589844 23.855469 12.53125 23.992188 C 12.472656 24.132812 12.445312 24.277344 12.445312 24.425781 C 12.445312 24.578125 12.472656 24.722656 12.53125 24.859375 C 12.585938 25 12.667969 25.121094 12.777344 25.230469 C 12.882812 25.335938 13.003906 25.417969 13.144531 25.476562 C 13.28125 25.53125 13.429688 25.5625 13.578125 25.5625 C 13.730469 25.5625 13.875 25.53125 14.011719 25.472656 C 14.152344 25.417969 14.273438 25.335938 14.378906 25.226562 C 14.488281 25.121094 14.566406 25 14.625 24.859375 C 14.683594 24.71875 14.710938 24.574219 14.710938 24.425781 C 14.710938 24.273438 14.683594 24.132812 14.625 23.992188 C 14.566406 23.855469 14.484375 23.730469 14.378906 23.625 C 14.273438 23.519531 14.152344 23.4375 14.011719 23.382812 C 13.875 23.324219 13.730469 23.292969 13.582031 23.292969 Z M 25.566406 23.292969 C 25.417969 23.292969 25.273438 23.324219 25.136719 23.378906 C 24.996094 23.4375 24.875 23.519531 24.769531 23.625 C 24.660156 23.730469 24.578125 23.851562 24.523438 23.992188 C 24.464844 24.128906 24.433594 24.273438 24.433594 24.425781 C 24.433594 24.574219 24.460938 24.71875 24.519531 24.855469 C 24.574219 24.996094 24.65625 25.117188 24.761719 25.226562 C 24.867188 25.332031 24.988281 25.414062 25.128906 25.472656 C 25.265625 25.53125 25.410156 25.558594 25.558594 25.5625 C 25.710938 25.5625 25.855469 25.535156 25.992188 25.476562 C 26.132812 25.421875 26.257812 25.339844 26.363281 25.234375 C 26.46875 25.132812 26.550781 25.007812 26.609375 24.871094 C 26.671875 24.734375 26.699219 24.589844 26.703125 24.4375 C 26.703125 24.289062 26.675781 24.140625 26.617188 24.003906 C 26.5625 23.863281 26.480469 23.738281 26.375 23.628906 C 26.265625 23.523438 26.144531 23.441406 26.003906 23.382812 C 25.863281 23.324219 25.71875 23.292969 25.566406 23.292969 Z M 37.558594 23.292969 C 37.410156 23.292969 37.261719 23.324219 37.125 23.378906 C 36.984375 23.4375 36.863281 23.519531 36.757812 23.625 C 36.652344 23.734375 36.570312 23.855469 36.511719 23.996094 C 36.453125 24.132812 36.425781 24.277344 36.425781 24.429688 C 36.425781 24.578125 36.453125 24.722656 36.511719 24.863281 C 36.570312 25 36.652344 25.125 36.757812 25.230469 C 36.863281 25.335938 36.988281 25.417969 37.125 25.476562 C 37.265625 25.53125 37.410156 25.5625 37.5625 25.5625 C 37.710938 25.5625 37.855469 25.53125 37.996094 25.472656 C 38.132812 25.417969 38.253906 25.335938 38.363281 25.226562 C 38.46875 25.121094 38.550781 25 38.605469 24.859375 C 38.664062 24.71875 38.691406 24.574219 38.691406 24.425781 C 38.691406 24.273438 38.664062 24.132812 38.605469 23.992188 C 38.546875 23.855469 38.46875 23.734375 38.359375 23.628906 C 38.253906 23.519531 38.132812 23.441406 37.996094 23.382812 C 37.859375 23.324219 37.714844 23.296875 37.566406 23.292969 Z M 49.550781 23.292969 C 49.398438 23.292969 49.253906 23.324219 49.117188 23.378906 C 48.976562 23.4375 48.855469 23.519531 48.746094 23.625 C 48.640625 23.734375 48.558594 23.855469 48.5 23.996094 C 48.445312 24.132812 48.414062 24.277344 48.414062 24.429688 C 48.414062 24.578125 48.445312 24.722656 48.503906 24.863281 C 48.558594 25 48.640625 25.125 48.75 25.230469 C 48.855469 25.335938 48.976562 25.417969 49.117188 25.476562 C 49.257812 25.53125 49.402344 25.5625 49.550781 25.5625 C 49.703125 25.5625 49.847656 25.53125 49.984375 25.472656 C 50.125 25.417969 50.246094 25.335938 50.351562 25.226562 C 50.457031 25.121094 50.539062 25 50.597656 24.859375 C 50.65625 24.71875 50.683594 24.574219 50.683594 24.425781 C 50.683594 24.273438 50.652344 24.128906 50.597656 23.992188 C 50.539062 23.851562 50.457031 23.730469 50.351562 23.625 C 50.242188 23.519531 50.121094 23.4375 49.984375 23.378906 C 49.84375 23.324219 49.699219 23.292969 49.550781 23.292969 Z M 61.539062 23.292969 C 61.390625 23.292969 61.246094 23.324219 61.105469 23.378906 C 60.964844 23.4375 60.84375 23.519531 60.738281 23.625 C 60.628906 23.730469 60.546875 23.855469 60.492188 23.992188 C 60.433594 24.132812 60.402344 24.277344 60.402344 24.425781 C 60.402344 24.578125 60.433594 24.722656 60.488281 24.859375 C 60.546875 25 60.628906 25.121094 60.734375 25.230469 C 60.84375 25.335938 60.964844 25.417969 61.105469 25.476562 C 61.242188 25.53125 61.386719 25.5625 61.539062 25.5625 C 61.6875 25.5625 61.832031 25.53125 61.972656 25.472656 C 62.109375 25.417969 62.234375 25.335938 62.339844 25.226562 C 62.445312 25.121094 62.527344 25 62.585938 24.859375 C 62.644531 24.71875 62.671875 24.574219 62.671875 24.425781 C 62.671875 24.273438 62.640625 24.132812 62.582031 23.992188 C 62.527344 23.855469 62.445312 23.730469 62.339844 23.625 C 62.234375 23.519531 62.109375 23.4375 61.972656 23.382812 C 61.832031 23.324219 61.691406 23.292969 61.539062 23.292969 Z M 73.53125 23.292969 C 73.382812 23.296875 73.238281 23.324219 73.097656 23.382812 C 72.960938 23.441406 72.839844 23.523438 72.734375 23.628906 C 72.628906 23.738281 72.546875 23.859375 72.492188 23.996094 C 72.433594 24.136719 72.40625 24.28125 72.40625 24.429688 C 72.40625 24.578125 72.433594 24.722656 72.492188 24.863281 C 72.550781 25 72.632812 25.121094 72.738281 25.226562 C 72.84375 25.335938 72.964844 25.417969 73.101562 25.472656 C 73.242188 25.53125 73.386719 25.5625 73.535156 25.5625 C 73.683594 25.5625 73.828125 25.535156 73.96875 25.476562 C 74.105469 25.421875 74.226562 25.339844 74.335938 25.234375 C 74.441406 25.128906 74.523438 25.007812 74.582031 24.871094 C 74.640625 24.734375 74.671875 24.589844 74.671875 24.4375 C 74.675781 24.289062 74.648438 24.140625 74.589844 24 C 74.53125 23.859375 74.449219 23.734375 74.34375 23.628906 C 74.234375 23.519531 74.109375 23.4375 73.96875 23.378906 C 73.828125 23.320312 73.683594 23.292969 73.53125 23.292969 Z M 85.519531 23.292969 C 85.367188 23.292969 85.222656 23.324219 85.085938 23.378906 C 84.945312 23.4375 84.824219 23.519531 84.714844 23.625 C 84.609375 23.734375 84.527344 23.855469 84.472656 23.996094 C 84.414062 24.132812 84.382812 24.277344 84.386719 24.429688 C 84.386719 24.578125 84.414062 24.722656 84.472656 24.863281 C 84.53125 25 84.613281 25.125 84.71875 25.230469 C 84.824219 25.335938 84.945312 25.417969 85.085938 25.476562 C 85.226562 25.53125 85.371094 25.5625 85.519531 25.5625 C 85.671875 25.5625 85.816406 25.53125 85.953125 25.472656 C 86.09375 25.417969 86.214844 25.335938 86.320312 25.226562 C 86.429688 25.121094 86.507812 25 86.566406 24.859375 C 86.625 24.71875 86.652344 24.574219 86.652344 24.425781 C 86.652344 24.273438 86.621094 24.128906 86.566406 23.992188 C 86.507812 23.851562 86.425781 23.730469 86.320312 23.625 C 86.210938 23.519531 86.089844 23.4375 85.953125 23.378906 C 85.8125 23.324219 85.667969 23.292969 85.519531 23.292969 Z M 97.507812 23.292969 C 97.359375 23.292969 97.214844 23.324219 97.074219 23.378906 C 96.9375 23.4375 96.8125 23.519531 96.707031 23.625 C 96.601562 23.734375 96.519531 23.855469 96.460938 23.996094 C 96.402344 24.132812 96.375 24.277344 96.375 24.429688 C 96.375 24.578125 96.40625 24.722656 96.460938 24.863281 C 96.519531 25 96.601562 25.125 96.707031 25.230469 C 96.816406 25.335938 96.9375 25.417969 97.078125 25.476562 C 97.214844 25.53125 97.359375 25.5625 97.511719 25.5625 C 97.660156 25.5625 97.804688 25.53125 97.945312 25.472656 C 98.082031 25.417969 98.207031 25.335938 98.3125 25.226562 C 98.417969 25.121094 98.5 25 98.558594 24.859375 C 98.613281 24.71875 98.644531 24.574219 98.644531 24.425781 C 98.640625 24.273438 98.613281 24.128906 98.554688 23.992188 C 98.496094 23.851562 98.414062 23.730469 98.308594 23.625 C 98.203125 23.519531 98.082031 23.4375 97.941406 23.378906 C 97.804688 23.324219 97.660156 23.292969 97.507812 23.292969 Z M 109.5 23.292969 C 109.347656 23.292969 109.203125 23.320312 109.066406 23.375 C 108.925781 23.433594 108.800781 23.511719 108.695312 23.617188 C 108.585938 23.722656 108.503906 23.84375 108.445312 23.984375 C 108.386719 24.121094 108.355469 24.265625 108.355469 24.417969 C 108.351562 24.566406 108.378906 24.710938 108.4375 24.851562 C 108.492188 24.988281 108.574219 25.113281 108.679688 25.222656 C 108.785156 25.328125 108.90625 25.410156 109.042969 25.46875 C 109.183594 25.53125 109.328125 25.558594 109.476562 25.5625 C 109.625 25.5625 109.773438 25.535156 109.910156 25.480469 C 110.050781 25.421875 110.175781 25.34375 110.28125 25.238281 C 110.390625 25.132812 110.472656 25.011719 110.53125 24.871094 C 110.589844 24.734375 110.621094 24.589844 110.621094 24.4375 C 110.625 24.289062 110.597656 24.144531 110.539062 24.003906 C 110.484375 23.863281 110.402344 23.742188 110.296875 23.632812 C 110.191406 23.527344 110.070312 23.445312 109.933594 23.386719 C 109.792969 23.324219 109.648438 23.296875 109.5 23.292969 Z M 1.589844 34.890625 C 1.441406 34.890625 1.296875 34.917969 1.15625 34.976562 C 1.015625 35.03125 0.894531 35.113281 0.789062 35.21875 C 0.683594 35.324219 0.597656 35.449219 0.542969 35.585938 C 0.484375 35.722656 0.453125 35.867188 0.453125 36.019531 C 0.453125 36.167969 0.480469 36.3125 0.539062 36.453125 C 0.59375 36.589844 0.675781 36.714844 0.78125 36.820312 C 0.886719 36.925781 1.007812 37.011719 1.144531 37.066406 C 1.285156 37.125 1.429688 37.15625 1.578125 37.15625 C 1.726562 37.160156 1.871094 37.132812 2.011719 37.074219 C 2.152344 37.019531 2.273438 36.9375 2.382812 36.832031 C 2.488281 36.726562 2.570312 36.605469 2.628906 36.46875 C 2.6875 36.328125 2.71875 36.1875 2.71875 36.035156 C 2.722656 35.886719 2.691406 35.738281 2.636719 35.601562 C 2.578125 35.460938 2.496094 35.339844 2.390625 35.230469 C 2.285156 35.125 2.164062 35.042969 2.023438 34.984375 C 1.886719 34.925781 1.742188 34.898438 1.589844 34.894531 Z M 13.582031 34.890625 C 13.429688 34.890625 13.285156 34.917969 13.144531 34.976562 C 13.007812 35.03125 12.882812 35.113281 12.777344 35.222656 C 12.671875 35.328125 12.589844 35.449219 12.53125 35.589844 C 12.472656 35.726562 12.445312 35.871094 12.445312 36.023438 C 12.445312 36.171875 12.472656 36.316406 12.53125 36.457031 C 12.585938 36.59375 12.667969 36.71875 12.773438 36.824219 C 12.882812 36.929688 13.003906 37.011719 13.140625 37.070312 C 13.28125 37.128906 13.425781 37.15625 13.578125 37.15625 C 13.726562 37.15625 13.871094 37.128906 14.011719 37.070312 C 14.148438 37.015625 14.273438 36.933594 14.378906 36.824219 C 14.484375 36.71875 14.566406 36.597656 14.625 36.457031 C 14.683594 36.320312 14.710938 36.175781 14.710938 36.023438 C 14.710938 35.875 14.679688 35.730469 14.625 35.59375 C 14.566406 35.453125 14.484375 35.332031 14.378906 35.226562 C 14.273438 35.121094 14.148438 35.039062 14.011719 34.984375 C 13.875 34.925781 13.730469 34.898438 13.582031 34.894531 Z M 25.566406 34.890625 C 25.417969 34.890625 25.273438 34.917969 25.136719 34.976562 C 24.996094 35.035156 24.875 35.117188 24.769531 35.222656 C 24.660156 35.328125 24.578125 35.449219 24.523438 35.585938 C 24.464844 35.726562 24.433594 35.871094 24.433594 36.019531 C 24.433594 36.171875 24.460938 36.316406 24.519531 36.453125 C 24.574219 36.59375 24.65625 36.714844 24.761719 36.820312 C 24.867188 36.929688 24.988281 37.011719 25.128906 37.070312 C 25.265625 37.128906 25.410156 37.15625 25.558594 37.15625 C 25.710938 37.160156 25.855469 37.132812 25.992188 37.074219 C 26.132812 37.019531 26.257812 36.9375 26.363281 36.832031 C 26.46875 36.726562 26.550781 36.605469 26.609375 36.46875 C 26.671875 36.328125 26.699219 36.1875 26.703125 36.035156 C 26.703125 35.886719 26.675781 35.738281 26.617188 35.601562 C 26.558594 35.460938 26.476562 35.335938 26.371094 35.230469 C 26.265625 35.125 26.140625 35.042969 26.003906 34.984375 C 25.863281 34.925781 25.71875 34.894531 25.566406 34.894531 Z M 37.558594 34.890625 C 37.410156 34.890625 37.265625 34.917969 37.125 34.976562 C 36.984375 35.035156 36.863281 35.117188 36.757812 35.222656 C 36.652344 35.328125 36.570312 35.453125 36.511719 35.589844 C 36.453125 35.730469 36.425781 35.875 36.425781 36.023438 C 36.425781 36.175781 36.453125 36.320312 36.511719 36.457031 C 36.570312 36.597656 36.652344 36.71875 36.757812 36.824219 C 36.863281 36.933594 36.984375 37.015625 37.125 37.070312 C 37.265625 37.128906 37.410156 37.15625 37.558594 37.15625 C 37.710938 37.15625 37.855469 37.128906 37.992188 37.070312 C 38.132812 37.015625 38.253906 36.933594 38.359375 36.824219 C 38.464844 36.71875 38.546875 36.597656 38.605469 36.457031 C 38.664062 36.320312 38.691406 36.175781 38.691406 36.023438 C 38.691406 35.875 38.664062 35.730469 38.605469 35.59375 C 38.546875 35.457031 38.464844 35.332031 38.359375 35.226562 C 38.253906 35.121094 38.132812 35.042969 37.996094 34.984375 C 37.855469 34.925781 37.714844 34.898438 37.566406 34.894531 Z M 49.550781 34.890625 C 49.398438 34.890625 49.253906 34.917969 49.117188 34.976562 C 48.976562 35.035156 48.855469 35.117188 48.746094 35.222656 C 48.640625 35.328125 48.558594 35.453125 48.503906 35.589844 C 48.445312 35.730469 48.414062 35.875 48.414062 36.023438 C 48.414062 36.175781 48.445312 36.320312 48.503906 36.457031 C 48.558594 36.597656 48.640625 36.71875 48.746094 36.824219 C 48.855469 36.933594 48.976562 37.015625 49.117188 37.070312 C 49.253906 37.128906 49.398438 37.15625 49.550781 37.15625 C 49.699219 37.15625 49.84375 37.128906 49.984375 37.070312 C 50.121094 37.015625 50.246094 36.933594 50.351562 36.824219 C 50.457031 36.71875 50.539062 36.597656 50.597656 36.457031 C 50.652344 36.320312 50.683594 36.175781 50.683594 36.023438 C 50.683594 35.875 50.652344 35.730469 50.59375 35.59375 C 50.539062 35.453125 50.457031 35.332031 50.347656 35.226562 C 50.242188 35.121094 50.121094 35.039062 49.980469 34.980469 C 49.84375 34.925781 49.699219 34.894531 49.550781 34.894531 Z M 61.539062 34.890625 C 61.390625 34.890625 61.246094 34.917969 61.105469 34.976562 C 60.964844 35.03125 60.84375 35.113281 60.738281 35.222656 C 60.628906 35.328125 60.546875 35.449219 60.492188 35.589844 C 60.433594 35.726562 60.402344 35.871094 60.402344 36.023438 C 60.402344 36.171875 60.433594 36.316406 60.488281 36.457031 C 60.546875 36.59375 60.628906 36.71875 60.734375 36.824219 C 60.839844 36.929688 60.964844 37.011719 61.101562 37.070312 C 61.242188 37.128906 61.386719 37.15625 61.535156 37.15625 C 61.6875 37.15625 61.832031 37.128906 61.96875 37.070312 C 62.109375 37.015625 62.230469 36.933594 62.339844 36.824219 C 62.445312 36.71875 62.527344 36.597656 62.585938 36.457031 C 62.640625 36.320312 62.671875 36.175781 62.671875 36.023438 C 62.667969 35.875 62.640625 35.730469 62.582031 35.59375 C 62.523438 35.453125 62.445312 35.332031 62.335938 35.226562 C 62.230469 35.121094 62.109375 35.039062 61.972656 34.984375 C 61.832031 34.925781 61.691406 34.898438 61.539062 34.894531 Z M 73.53125 34.890625 C 73.382812 34.890625 73.238281 34.921875 73.097656 34.980469 C 72.960938 35.039062 72.839844 35.121094 72.734375 35.226562 C 72.628906 35.332031 72.546875 35.457031 72.492188 35.59375 C 72.433594 35.730469 72.40625 35.875 72.40625 36.027344 C 72.40625 36.175781 72.433594 36.320312 72.492188 36.457031 C 72.550781 36.597656 72.632812 36.71875 72.738281 36.824219 C 72.84375 36.929688 72.964844 37.011719 73.101562 37.070312 C 73.242188 37.128906 73.386719 37.15625 73.535156 37.15625 C 73.683594 37.160156 73.828125 37.128906 73.96875 37.074219 C 74.105469 37.015625 74.226562 36.9375 74.335938 36.832031 C 74.441406 36.726562 74.523438 36.605469 74.582031 36.46875 C 74.640625 36.328125 74.671875 36.183594 74.671875 36.035156 C 74.671875 35.882812 74.644531 35.738281 74.585938 35.597656 C 74.53125 35.457031 74.445312 35.335938 74.339844 35.226562 C 74.234375 35.121094 74.109375 35.039062 73.96875 34.980469 C 73.828125 34.921875 73.683594 34.894531 73.53125 34.894531 Z M 85.519531 34.890625 C 85.367188 34.890625 85.222656 34.917969 85.085938 34.976562 C 84.945312 35.035156 84.824219 35.117188 84.71875 35.222656 C 84.609375 35.328125 84.527344 35.453125 84.472656 35.589844 C 84.414062 35.730469 84.386719 35.875 84.386719 36.023438 C 84.386719 36.175781 84.414062 36.320312 84.472656 36.457031 C 84.527344 36.597656 84.609375 36.71875 84.71875 36.824219 C 84.824219 36.933594 84.945312 37.015625 85.085938 37.070312 C 85.222656 37.128906 85.367188 37.15625 85.519531 37.15625 C 85.667969 37.15625 85.8125 37.128906 85.953125 37.070312 C 86.089844 37.015625 86.214844 36.933594 86.320312 36.824219 C 86.425781 36.71875 86.507812 36.597656 86.566406 36.457031 C 86.625 36.320312 86.652344 36.175781 86.652344 36.023438 C 86.652344 35.875 86.621094 35.730469 86.5625 35.59375 C 86.507812 35.453125 86.425781 35.332031 86.316406 35.226562 C 86.210938 35.121094 86.089844 35.039062 85.949219 34.980469 C 85.8125 34.925781 85.667969 34.894531 85.519531 34.894531 Z M 97.507812 34.890625 C 97.359375 34.890625 97.214844 34.917969 97.074219 34.976562 C 96.9375 35.035156 96.8125 35.117188 96.707031 35.222656 C 96.601562 35.328125 96.519531 35.453125 96.460938 35.589844 C 96.402344 35.730469 96.375 35.875 96.375 36.023438 C 96.375 36.175781 96.402344 36.320312 96.460938 36.457031 C 96.519531 36.597656 96.601562 36.71875 96.707031 36.824219 C 96.8125 36.933594 96.9375 37.015625 97.074219 37.070312 C 97.214844 37.128906 97.359375 37.15625 97.507812 37.15625 C 97.660156 37.15625 97.804688 37.128906 97.941406 37.070312 C 98.082031 37.015625 98.203125 36.933594 98.3125 36.824219 C 98.417969 36.71875 98.5 36.597656 98.554688 36.457031 C 98.613281 36.320312 98.644531 36.175781 98.644531 36.023438 C 98.640625 35.875 98.613281 35.730469 98.554688 35.59375 C 98.496094 35.453125 98.414062 35.332031 98.308594 35.226562 C 98.203125 35.121094 98.078125 35.039062 97.941406 34.980469 C 97.804688 34.925781 97.660156 34.894531 97.507812 34.894531 Z M 109.5 34.890625 C 109.347656 34.890625 109.203125 34.917969 109.066406 34.972656 C 108.925781 35.027344 108.800781 35.109375 108.695312 35.214844 C 108.585938 35.320312 108.503906 35.441406 108.445312 35.578125 C 108.386719 35.71875 108.355469 35.863281 108.355469 36.011719 C 108.351562 36.164062 108.378906 36.308594 108.4375 36.445312 C 108.492188 36.585938 108.574219 36.710938 108.679688 36.816406 C 108.785156 36.925781 108.90625 37.007812 109.042969 37.066406 C 109.183594 37.125 109.328125 37.15625 109.476562 37.15625 C 109.625 37.160156 109.773438 37.132812 109.910156 37.074219 C 110.050781 37.019531 110.175781 36.9375 110.28125 36.832031 C 110.390625 36.730469 110.472656 36.605469 110.53125 36.46875 C 110.589844 36.332031 110.621094 36.1875 110.621094 36.035156 C 110.621094 35.886719 110.59375 35.742188 110.539062 35.601562 C 110.480469 35.464844 110.402344 35.339844 110.296875 35.234375 C 110.191406 35.128906 110.070312 35.046875 109.929688 34.988281 C 109.792969 34.929688 109.648438 34.898438 109.5 34.894531 Z M 1.589844 46.5 C 1.4375 46.5 1.292969 46.53125 1.15625 46.585938 C 1.015625 46.644531 0.894531 46.726562 0.785156 46.832031 C 0.679688 46.9375 0.597656 47.0625 0.539062 47.199219 C 0.480469 47.339844 0.453125 47.484375 0.453125 47.632812 C 0.453125 47.785156 0.480469 47.929688 0.539062 48.066406 C 0.597656 48.207031 0.679688 48.332031 0.785156 48.4375 C 0.890625 48.542969 1.015625 48.625 1.152344 48.683594 C 1.292969 48.738281 1.4375 48.769531 1.585938 48.769531 C 1.738281 48.769531 1.882812 48.738281 2.023438 48.683594 C 2.160156 48.625 2.285156 48.542969 2.390625 48.433594 C 2.496094 48.328125 2.578125 48.207031 2.636719 48.066406 C 2.691406 47.925781 2.722656 47.78125 2.71875 47.632812 C 2.71875 47.480469 2.691406 47.339844 2.632812 47.199219 C 2.574219 47.0625 2.496094 46.9375 2.386719 46.832031 C 2.28125 46.726562 2.160156 46.644531 2.023438 46.589844 C 1.882812 46.53125 1.738281 46.5 1.589844 46.5 Z M 13.582031 46.5 C 13.429688 46.5 13.285156 46.53125 13.144531 46.585938 C 13.007812 46.644531 12.882812 46.726562 12.777344 46.832031 C 12.671875 46.9375 12.589844 47.0625 12.53125 47.199219 C 12.472656 47.339844 12.445312 47.484375 12.445312 47.632812 C 12.445312 47.785156 12.472656 47.929688 12.53125 48.066406 C 12.585938 48.207031 12.667969 48.332031 12.777344 48.4375 C 12.882812 48.542969 13.003906 48.625 13.144531 48.683594 C 13.28125 48.738281 13.429688 48.769531 13.578125 48.769531 C 13.730469 48.769531 13.875 48.738281 14.011719 48.683594 C 14.152344 48.625 14.273438 48.542969 14.378906 48.433594 C 14.488281 48.328125 14.566406 48.207031 14.625 48.066406 C 14.683594 47.925781 14.710938 47.78125 14.710938 47.632812 C 14.710938 47.480469 14.683594 47.339844 14.625 47.199219 C 14.566406 47.0625 14.484375 46.9375 14.378906 46.832031 C 14.273438 46.726562 14.152344 46.644531 14.011719 46.589844 C 13.875 46.53125 13.730469 46.5 13.582031 46.5 Z M 25.566406 46.5 C 25.417969 46.5 25.273438 46.53125 25.132812 46.585938 C 24.996094 46.644531 24.871094 46.726562 24.765625 46.832031 C 24.660156 46.941406 24.578125 47.0625 24.519531 47.203125 C 24.464844 47.339844 24.433594 47.484375 24.433594 47.636719 C 24.433594 47.785156 24.464844 47.929688 24.519531 48.070312 C 24.578125 48.207031 24.660156 48.332031 24.769531 48.4375 C 24.875 48.542969 24.996094 48.625 25.136719 48.683594 C 25.273438 48.742188 25.417969 48.769531 25.570312 48.769531 C 25.71875 48.769531 25.863281 48.738281 26.003906 48.679688 C 26.144531 48.625 26.265625 48.542969 26.371094 48.433594 C 26.476562 48.328125 26.558594 48.207031 26.617188 48.066406 C 26.671875 47.925781 26.703125 47.78125 26.703125 47.632812 C 26.703125 47.480469 26.671875 47.335938 26.613281 47.199219 C 26.558594 47.0625 26.476562 46.9375 26.367188 46.832031 C 26.261719 46.726562 26.140625 46.644531 26 46.585938 C 25.863281 46.53125 25.71875 46.5 25.566406 46.5 Z M 37.558594 46.5 C 37.410156 46.5 37.261719 46.53125 37.125 46.585938 C 36.984375 46.644531 36.863281 46.726562 36.757812 46.832031 C 36.652344 46.941406 36.570312 47.0625 36.511719 47.203125 C 36.453125 47.339844 36.425781 47.484375 36.425781 47.636719 C 36.425781 47.785156 36.453125 47.929688 36.511719 48.070312 C 36.570312 48.207031 36.652344 48.332031 36.757812 48.4375 C 36.863281 48.542969 36.988281 48.625 37.125 48.683594 C 37.265625 48.742188 37.410156 48.769531 37.5625 48.769531 C 37.710938 48.769531 37.855469 48.738281 37.996094 48.679688 C 38.132812 48.625 38.253906 48.542969 38.363281 48.433594 C 38.46875 48.328125 38.550781 48.207031 38.605469 48.066406 C 38.664062 47.925781 38.691406 47.78125 38.691406 47.632812 C 38.691406 47.484375 38.664062 47.339844 38.605469 47.199219 C 38.546875 47.0625 38.46875 46.941406 38.359375 46.835938 C 38.253906 46.730469 38.132812 46.648438 37.996094 46.589844 C 37.859375 46.53125 37.714844 46.503906 37.566406 46.5 Z M 49.550781 46.5 C 49.398438 46.5 49.253906 46.53125 49.117188 46.585938 C 48.976562 46.644531 48.855469 46.726562 48.746094 46.832031 C 48.640625 46.941406 48.558594 47.0625 48.5 47.203125 C 48.445312 47.339844 48.414062 47.484375 48.414062 47.636719 C 48.414062 47.785156 48.445312 47.929688 48.503906 48.070312 C 48.558594 48.207031 48.640625 48.332031 48.75 48.4375 C 48.855469 48.542969 48.976562 48.625 49.117188 48.683594 C 49.257812 48.742188 49.402344 48.769531 49.550781 48.769531 C 49.703125 48.769531 49.847656 48.738281 49.984375 48.679688 C 50.125 48.625 50.246094 48.542969 50.351562 48.433594 C 50.457031 48.328125 50.539062 48.207031 50.597656 48.066406 C 50.65625 47.925781 50.683594 47.78125 50.683594 47.632812 C 50.683594 47.480469 50.652344 47.335938 50.597656 47.199219 C 50.539062 47.0625 50.457031 46.9375 50.351562 46.832031 C 50.242188 46.726562 50.121094 46.644531 49.984375 46.585938 C 49.84375 46.53125 49.699219 46.5 49.550781 46.5 Z M 61.539062 46.5 C 61.390625 46.5 61.246094 46.53125 61.105469 46.585938 C 60.964844 46.644531 60.84375 46.726562 60.738281 46.832031 C 60.628906 46.9375 60.546875 47.0625 60.492188 47.199219 C 60.433594 47.339844 60.402344 47.484375 60.402344 47.632812 C 60.402344 47.785156 60.433594 47.929688 60.488281 48.066406 C 60.546875 48.207031 60.628906 48.332031 60.734375 48.4375 C 60.84375 48.542969 60.964844 48.625 61.105469 48.683594 C 61.242188 48.738281 61.386719 48.769531 61.539062 48.769531 C 61.6875 48.769531 61.832031 48.738281 61.972656 48.683594 C 62.109375 48.625 62.234375 48.542969 62.339844 48.433594 C 62.445312 48.328125 62.527344 48.207031 62.585938 48.066406 C 62.644531 47.925781 62.671875 47.78125 62.671875 47.632812 C 62.671875 47.480469 62.640625 47.339844 62.582031 47.199219 C 62.527344 47.0625 62.445312 46.9375 62.339844 46.832031 C 62.234375 46.726562 62.109375 46.644531 61.972656 46.589844 C 61.832031 46.53125 61.691406 46.5 61.539062 46.5 Z M 73.53125 46.5 C 73.378906 46.503906 73.234375 46.53125 73.097656 46.589844 C 72.960938 46.648438 72.835938 46.730469 72.730469 46.839844 C 72.625 46.945312 72.546875 47.070312 72.488281 47.207031 C 72.433594 47.347656 72.40625 47.492188 72.40625 47.640625 C 72.40625 47.792969 72.4375 47.9375 72.496094 48.074219 C 72.554688 48.214844 72.636719 48.335938 72.742188 48.441406 C 72.847656 48.546875 72.972656 48.628906 73.109375 48.683594 C 73.25 48.742188 73.394531 48.769531 73.542969 48.769531 C 73.695312 48.769531 73.839844 48.738281 73.976562 48.679688 C 74.117188 48.621094 74.238281 48.539062 74.34375 48.433594 C 74.449219 48.328125 74.53125 48.203125 74.589844 48.066406 C 74.644531 47.925781 74.671875 47.78125 74.671875 47.632812 C 74.671875 47.480469 74.644531 47.335938 74.585938 47.195312 C 74.527344 47.058594 74.445312 46.933594 74.335938 46.828125 C 74.230469 46.722656 74.105469 46.640625 73.964844 46.585938 C 73.828125 46.527344 73.679688 46.5 73.53125 46.5 Z M 85.519531 46.5 C 85.367188 46.5 85.222656 46.53125 85.085938 46.585938 C 84.945312 46.644531 84.824219 46.726562 84.714844 46.832031 C 84.609375 46.941406 84.527344 47.0625 84.472656 47.203125 C 84.414062 47.339844 84.382812 47.484375 84.386719 47.636719 C 84.386719 47.785156 84.414062 47.929688 84.472656 48.070312 C 84.53125 48.207031 84.613281 48.332031 84.71875 48.4375 C 84.824219 48.542969 84.945312 48.625 85.085938 48.683594 C 85.226562 48.742188 85.371094 48.769531 85.519531 48.769531 C 85.671875 48.769531 85.816406 48.738281 85.953125 48.679688 C 86.09375 48.625 86.214844 48.542969 86.320312 48.433594 C 86.429688 48.328125 86.507812 48.207031 86.566406 48.066406 C 86.625 47.925781 86.652344 47.78125 86.652344 47.632812 C 86.652344 47.480469 86.621094 47.335938 86.566406 47.199219 C 86.507812 47.0625 86.425781 46.9375 86.320312 46.832031 C 86.210938 46.726562 86.089844 46.644531 85.953125 46.585938 C 85.8125 46.53125 85.667969 46.5 85.519531 46.5 Z M 97.507812 46.5 C 97.359375 46.5 97.214844 46.53125 97.074219 46.585938 C 96.9375 46.644531 96.8125 46.726562 96.707031 46.832031 C 96.601562 46.941406 96.519531 47.0625 96.460938 47.203125 C 96.402344 47.339844 96.375 47.484375 96.375 47.636719 C 96.375 47.785156 96.40625 47.929688 96.460938 48.070312 C 96.519531 48.207031 96.601562 48.332031 96.707031 48.4375 C 96.816406 48.542969 96.9375 48.625 97.078125 48.683594 C 97.214844 48.742188 97.359375 48.769531 97.511719 48.769531 C 97.660156 48.769531 97.804688 48.738281 97.945312 48.679688 C 98.082031 48.625 98.207031 48.542969 98.3125 48.433594 C 98.417969 48.328125 98.5 48.207031 98.558594 48.066406 C 98.613281 47.925781 98.644531 47.78125 98.644531 47.632812 C 98.640625 47.480469 98.613281 47.335938 98.554688 47.199219 C 98.496094 47.0625 98.414062 46.9375 98.308594 46.832031 C 98.203125 46.726562 98.082031 46.644531 97.941406 46.585938 C 97.804688 46.53125 97.660156 46.5 97.507812 46.5 Z M 109.5 46.5 C 109.347656 46.5 109.203125 46.527344 109.0625 46.582031 C 108.925781 46.640625 108.800781 46.722656 108.691406 46.828125 C 108.585938 46.933594 108.503906 47.054688 108.445312 47.195312 C 108.386719 47.332031 108.355469 47.476562 108.355469 47.628906 C 108.355469 47.777344 108.382812 47.925781 108.4375 48.0625 C 108.496094 48.203125 108.578125 48.328125 108.683594 48.433594 C 108.789062 48.539062 108.914062 48.621094 109.050781 48.679688 C 109.191406 48.738281 109.335938 48.769531 109.484375 48.769531 C 109.636719 48.769531 109.78125 48.738281 109.921875 48.683594 C 110.058594 48.625 110.183594 48.542969 110.289062 48.4375 C 110.398438 48.328125 110.480469 48.207031 110.535156 48.066406 C 110.59375 47.929688 110.621094 47.78125 110.621094 47.632812 C 110.621094 47.484375 110.59375 47.339844 110.535156 47.203125 C 110.480469 47.0625 110.398438 46.941406 110.292969 46.835938 C 110.1875 46.730469 110.066406 46.648438 109.929688 46.589844 C 109.792969 46.53125 109.648438 46.503906 109.5 46.5 Z M 1.589844 58.097656 C 1.4375 58.097656 1.292969 58.125 1.15625 58.183594 C 1.015625 58.242188 0.894531 58.320312 0.785156 58.429688 C 0.679688 58.535156 0.597656 58.65625 0.539062 58.796875 C 0.480469 58.933594 0.453125 59.078125 0.453125 59.230469 C 0.453125 59.382812 0.480469 59.527344 0.539062 59.664062 C 0.597656 59.804688 0.679688 59.925781 0.785156 60.03125 C 0.890625 60.140625 1.015625 60.222656 1.152344 60.277344 C 1.292969 60.335938 1.4375 60.363281 1.585938 60.363281 C 1.738281 60.363281 1.882812 60.335938 2.023438 60.277344 C 2.160156 60.21875 2.285156 60.136719 2.390625 60.03125 C 2.496094 59.925781 2.578125 59.800781 2.636719 59.664062 C 2.691406 59.523438 2.722656 59.378906 2.71875 59.226562 C 2.71875 59.078125 2.691406 58.9375 2.632812 58.796875 C 2.574219 58.660156 2.492188 58.539062 2.386719 58.433594 C 2.28125 58.328125 2.160156 58.246094 2.019531 58.191406 C 1.882812 58.132812 1.738281 58.105469 1.589844 58.105469 Z M 13.582031 58.097656 C 13.429688 58.097656 13.285156 58.125 13.144531 58.183594 C 13.007812 58.242188 12.882812 58.320312 12.777344 58.429688 C 12.671875 58.535156 12.589844 58.65625 12.53125 58.796875 C 12.472656 58.933594 12.445312 59.078125 12.445312 59.230469 C 12.445312 59.378906 12.472656 59.523438 12.53125 59.664062 C 12.585938 59.800781 12.667969 59.925781 12.773438 60.03125 C 12.882812 60.136719 13.003906 60.21875 13.140625 60.277344 C 13.28125 60.335938 13.425781 60.363281 13.578125 60.363281 C 13.726562 60.363281 13.871094 60.335938 14.011719 60.277344 C 14.148438 60.222656 14.273438 60.140625 14.378906 60.035156 C 14.484375 59.925781 14.566406 59.804688 14.625 59.664062 C 14.683594 59.527344 14.710938 59.382812 14.710938 59.230469 C 14.710938 59.082031 14.679688 58.9375 14.625 58.800781 C 14.566406 58.660156 14.484375 58.539062 14.378906 58.433594 C 14.273438 58.328125 14.148438 58.246094 14.011719 58.191406 C 13.875 58.132812 13.730469 58.105469 13.582031 58.105469 Z M 25.566406 58.097656 C 25.417969 58.097656 25.273438 58.125 25.132812 58.183594 C 24.996094 58.242188 24.871094 58.324219 24.765625 58.429688 C 24.660156 58.535156 24.578125 58.660156 24.519531 58.796875 C 24.464844 58.9375 24.433594 59.082031 24.433594 59.230469 C 24.433594 59.382812 24.464844 59.527344 24.519531 59.667969 C 24.578125 59.804688 24.660156 59.925781 24.769531 60.035156 C 24.875 60.140625 24.996094 60.222656 25.136719 60.277344 C 25.273438 60.335938 25.417969 60.363281 25.570312 60.363281 C 25.71875 60.363281 25.863281 60.335938 26.003906 60.277344 C 26.144531 60.21875 26.265625 60.136719 26.371094 60.03125 C 26.476562 59.925781 26.558594 59.800781 26.617188 59.664062 C 26.671875 59.523438 26.703125 59.378906 26.703125 59.226562 C 26.699219 59.078125 26.671875 58.933594 26.613281 58.796875 C 26.554688 58.660156 26.472656 58.539062 26.367188 58.433594 C 26.261719 58.328125 26.136719 58.246094 26 58.1875 C 25.863281 58.132812 25.71875 58.105469 25.566406 58.105469 Z M 37.558594 58.097656 C 37.410156 58.097656 37.265625 58.125 37.125 58.183594 C 36.984375 58.242188 36.863281 58.324219 36.757812 58.429688 C 36.652344 58.535156 36.570312 58.660156 36.511719 58.796875 C 36.453125 58.9375 36.425781 59.082031 36.425781 59.230469 C 36.425781 59.382812 36.453125 59.527344 36.511719 59.664062 C 36.570312 59.804688 36.652344 59.925781 36.757812 60.03125 C 36.863281 60.140625 36.984375 60.222656 37.125 60.277344 C 37.265625 60.335938 37.410156 60.363281 37.558594 60.363281 C 37.710938 60.363281 37.855469 60.335938 37.992188 60.277344 C 38.132812 60.222656 38.253906 60.140625 38.359375 60.03125 C 38.464844 59.925781 38.546875 59.804688 38.605469 59.664062 C 38.664062 59.527344 38.691406 59.382812 38.691406 59.230469 C 38.691406 59.082031 38.664062 58.9375 38.605469 58.800781 C 38.546875 58.664062 38.464844 58.542969 38.359375 58.4375 C 38.253906 58.328125 38.132812 58.25 37.996094 58.191406 C 37.855469 58.132812 37.714844 58.105469 37.566406 58.105469 Z M 49.550781 58.097656 C 49.398438 58.097656 49.253906 58.125 49.117188 58.183594 C 48.976562 58.242188 48.855469 58.324219 48.746094 58.429688 C 48.640625 58.535156 48.558594 58.660156 48.503906 58.796875 C 48.445312 58.9375 48.414062 59.082031 48.414062 59.230469 C 48.414062 59.382812 48.445312 59.527344 48.503906 59.664062 C 48.558594 59.804688 48.640625 59.925781 48.746094 60.03125 C 48.855469 60.140625 48.976562 60.222656 49.117188 60.277344 C 49.253906 60.335938 49.398438 60.363281 49.550781 60.363281 C 49.699219 60.363281 49.84375 60.335938 49.984375 60.277344 C 50.121094 60.222656 50.246094 60.140625 50.351562 60.03125 C 50.457031 59.925781 50.539062 59.804688 50.597656 59.664062 C 50.652344 59.527344 50.683594 59.382812 50.683594 59.230469 C 50.683594 59.082031 50.652344 58.9375 50.59375 58.800781 C 50.539062 58.660156 50.457031 58.539062 50.347656 58.433594 C 50.242188 58.328125 50.121094 58.246094 49.980469 58.1875 C 49.84375 58.132812 49.699219 58.105469 49.550781 58.105469 Z M 61.539062 58.097656 C 61.390625 58.097656 61.246094 58.125 61.105469 58.183594 C 60.964844 58.242188 60.84375 58.320312 60.738281 58.429688 C 60.628906 58.535156 60.546875 58.65625 60.492188 58.796875 C 60.433594 58.933594 60.402344 59.078125 60.402344 59.230469 C 60.402344 59.378906 60.433594 59.523438 60.488281 59.664062 C 60.546875 59.800781 60.628906 59.925781 60.734375 60.03125 C 60.839844 60.136719 60.964844 60.21875 61.101562 60.277344 C 61.242188 60.335938 61.386719 60.363281 61.535156 60.363281 C 61.6875 60.363281 61.832031 60.335938 61.96875 60.277344 C 62.109375 60.222656 62.230469 60.140625 62.339844 60.035156 C 62.445312 59.925781 62.527344 59.804688 62.585938 59.664062 C 62.640625 59.527344 62.671875 59.382812 62.671875 59.230469 C 62.667969 59.082031 62.640625 58.9375 62.582031 58.800781 C 62.523438 58.660156 62.445312 58.539062 62.335938 58.433594 C 62.230469 58.328125 62.109375 58.246094 61.972656 58.191406 C 61.832031 58.132812 61.691406 58.105469 61.539062 58.105469 Z M 73.53125 58.097656 C 73.378906 58.097656 73.234375 58.128906 73.097656 58.1875 C 72.960938 58.246094 72.835938 58.328125 72.730469 58.433594 C 72.625 58.542969 72.546875 58.664062 72.488281 58.804688 C 72.433594 58.941406 72.40625 59.089844 72.40625 59.238281 C 72.40625 59.386719 72.4375 59.53125 72.496094 59.671875 C 72.554688 59.808594 72.636719 59.929688 72.742188 60.035156 C 72.847656 60.140625 72.972656 60.222656 73.109375 60.28125 C 73.25 60.335938 73.394531 60.367188 73.542969 60.363281 C 73.695312 60.363281 73.839844 60.335938 73.976562 60.277344 C 74.117188 60.21875 74.238281 60.136719 74.34375 60.03125 C 74.449219 59.921875 74.53125 59.800781 74.589844 59.660156 C 74.644531 59.523438 74.671875 59.378906 74.671875 59.226562 C 74.671875 59.078125 74.640625 58.933594 74.582031 58.796875 C 74.523438 58.65625 74.441406 58.535156 74.335938 58.429688 C 74.226562 58.324219 74.105469 58.242188 73.964844 58.1875 C 73.824219 58.128906 73.679688 58.101562 73.53125 58.105469 Z M 85.519531 58.097656 C 85.367188 58.097656 85.222656 58.125 85.085938 58.183594 C 84.945312 58.242188 84.824219 58.324219 84.71875 58.429688 C 84.609375 58.535156 84.527344 58.660156 84.472656 58.796875 C 84.414062 58.9375 84.386719 59.082031 84.386719 59.230469 C 84.386719 59.382812 84.414062 59.527344 84.472656 59.664062 C 84.527344 59.804688 84.609375 59.925781 84.71875 60.03125 C 84.824219 60.140625 84.945312 60.222656 85.085938 60.277344 C 85.222656 60.335938 85.367188 60.363281 85.519531 60.363281 C 85.667969 60.363281 85.8125 60.335938 85.953125 60.277344 C 86.089844 60.222656 86.214844 60.140625 86.320312 60.03125 C 86.425781 59.925781 86.507812 59.804688 86.566406 59.664062 C 86.625 59.527344 86.652344 59.382812 86.652344 59.230469 C 86.652344 59.082031 86.621094 58.9375 86.5625 58.800781 C 86.507812 58.660156 86.425781 58.539062 86.316406 58.433594 C 86.210938 58.328125 86.089844 58.246094 85.949219 58.1875 C 85.8125 58.132812 85.667969 58.105469 85.519531 58.105469 Z M 97.507812 58.097656 C 97.359375 58.097656 97.214844 58.125 97.074219 58.183594 C 96.9375 58.242188 96.8125 58.324219 96.707031 58.429688 C 96.601562 58.535156 96.519531 58.660156 96.460938 58.796875 C 96.402344 58.9375 96.375 59.082031 96.375 59.230469 C 96.375 59.382812 96.402344 59.527344 96.460938 59.664062 C 96.519531 59.804688 96.601562 59.925781 96.707031 60.03125 C 96.8125 60.140625 96.9375 60.222656 97.074219 60.277344 C 97.214844 60.335938 97.359375 60.363281 97.507812 60.363281 C 97.660156 60.363281 97.804688 60.335938 97.941406 60.277344 C 98.082031 60.222656 98.203125 60.140625 98.3125 60.03125 C 98.417969 59.925781 98.5 59.804688 98.554688 59.664062 C 98.613281 59.527344 98.644531 59.382812 98.644531 59.230469 C 98.640625 59.082031 98.613281 58.9375 98.554688 58.800781 C 98.496094 58.660156 98.414062 58.539062 98.308594 58.433594 C 98.203125 58.328125 98.078125 58.246094 97.941406 58.1875 C 97.804688 58.132812 97.660156 58.105469 97.507812 58.105469 Z M 109.5 58.097656 C 109.347656 58.097656 109.203125 58.125 109.0625 58.179688 C 108.925781 58.238281 108.800781 58.316406 108.691406 58.421875 C 108.585938 58.527344 108.503906 58.652344 108.445312 58.789062 C 108.386719 58.929688 108.355469 59.074219 108.355469 59.222656 C 108.355469 59.375 108.382812 59.519531 108.4375 59.660156 C 108.496094 59.800781 108.578125 59.921875 108.683594 60.03125 C 108.789062 60.136719 108.914062 60.21875 109.050781 60.277344 C 109.191406 60.335938 109.335938 60.363281 109.484375 60.363281 C 109.636719 60.363281 109.78125 60.335938 109.921875 60.277344 C 110.058594 60.222656 110.183594 60.140625 110.289062 60.03125 C 110.398438 59.925781 110.480469 59.804688 110.535156 59.664062 C 110.59375 59.523438 110.621094 59.378906 110.621094 59.226562 C 110.621094 59.078125 110.589844 58.9375 110.535156 58.800781 C 110.476562 58.664062 110.394531 58.542969 110.289062 58.4375 C 110.1875 58.332031 110.066406 58.25 109.929688 58.191406 C 109.789062 58.132812 109.648438 58.105469 109.5 58.105469 Z M 109.5 58.097656 " fill-opacity="1" fill-rule="nonzero" />
  </g>
</svg>