<svg xmlns="http://www.w3.org/2000/svg" xmlns:xlink="http://www.w3.org/1999/xlink" width="85" zoomAndPan="magnify" viewBox="0 0 63.75 28.499999" height="38" preserveAspectRatio="xMidYMid meet" version="1.0"><defs><clipPath id="264104fa3d"><path d="M 0.425781 0 L 63.078125 0 L 63.078125 27.273438 L 0.425781 27.273438 Z M 0.425781 0 " clip-rule="nonzero"/></clipPath></defs><g clip-path="url(#264104fa3d)"><path fill="#28c4df" d="M 49.339844 0 L 14.082031 0 C 13.183594 0 12.292969 0.0859375 11.410156 0.261719 C 10.527344 0.4375 9.667969 0.699219 8.835938 1.042969 C 8.003906 1.386719 7.214844 1.808594 6.464844 2.3125 C 5.71875 2.8125 5.027344 3.378906 4.390625 4.015625 C 3.753906 4.652344 3.183594 5.34375 2.683594 6.09375 C 2.183594 6.84375 1.761719 7.632812 1.417969 8.464844 C 1.074219 9.296875 0.8125 10.152344 0.636719 11.035156 C 0.460938 11.917969 0.375 12.808594 0.375 13.710938 C 0.375 14.609375 0.460938 15.503906 0.636719 16.386719 C 0.8125 17.269531 1.074219 18.125 1.417969 18.957031 C 1.761719 19.789062 2.183594 20.578125 2.683594 21.328125 C 3.183594 22.078125 3.753906 22.769531 4.390625 23.40625 C 5.027344 24.042969 5.71875 24.609375 6.464844 25.109375 C 7.214844 25.609375 8.003906 26.03125 8.835938 26.378906 C 9.667969 26.722656 10.527344 26.980469 11.410156 27.15625 C 12.292969 27.332031 13.183594 27.421875 14.082031 27.421875 L 49.339844 27.421875 C 50.238281 27.421875 51.132812 27.332031 52.015625 27.15625 C 52.898438 26.980469 53.753906 26.722656 54.585938 26.378906 C 55.417969 26.03125 56.207031 25.609375 56.957031 25.109375 C 57.707031 24.609375 58.398438 24.042969 59.035156 23.40625 C 59.671875 22.769531 60.238281 22.078125 60.738281 21.328125 C 61.238281 20.578125 61.664062 19.789062 62.007812 18.957031 C 62.351562 18.125 62.613281 17.269531 62.785156 16.386719 C 62.960938 15.503906 63.050781 14.609375 63.050781 13.710938 C 63.050781 12.808594 62.960938 11.917969 62.785156 11.035156 C 62.613281 10.152344 62.351562 9.296875 62.007812 8.464844 C 61.664062 7.632812 61.238281 6.84375 60.738281 6.09375 C 60.238281 5.34375 59.671875 4.652344 59.035156 4.015625 C 58.398438 3.378906 57.707031 2.8125 56.957031 2.3125 C 56.207031 1.808594 55.417969 1.386719 54.585938 1.042969 C 53.753906 0.699219 52.898438 0.4375 52.015625 0.261719 C 51.132812 0.0859375 50.238281 0 49.339844 0 Z M 44.628906 6.648438 C 44.949219 6.648438 45.253906 6.710938 45.546875 6.832031 C 45.839844 6.953125 46.097656 7.125 46.324219 7.351562 C 46.546875 7.574219 46.71875 7.832031 46.839844 8.125 C 46.964844 8.421875 47.023438 8.726562 47.023438 9.042969 C 47.023438 9.359375 46.964844 9.664062 46.839844 9.957031 C 46.71875 10.253906 46.546875 10.511719 46.324219 10.734375 C 46.097656 10.960938 45.839844 11.132812 45.546875 11.253906 C 45.253906 11.375 44.949219 11.4375 44.628906 11.4375 C 44.3125 11.4375 44.007812 11.375 43.714844 11.253906 C 43.421875 11.132812 43.160156 10.960938 42.9375 10.734375 C 42.710938 10.511719 42.539062 10.253906 42.417969 9.957031 C 42.296875 9.664062 42.234375 9.359375 42.234375 9.042969 C 42.234375 8.726562 42.296875 8.417969 42.417969 8.125 C 42.539062 7.832031 42.710938 7.574219 42.9375 7.351562 C 43.160156 7.125 43.421875 6.953125 43.714844 6.832031 C 44.007812 6.710938 44.3125 6.648438 44.628906 6.648438 Z M 23.222656 14.609375 C 23.222656 14.921875 23.164062 15.222656 23.042969 15.515625 C 22.925781 15.804688 22.753906 16.058594 22.53125 16.28125 C 22.308594 16.503906 22.054688 16.675781 21.761719 16.792969 C 21.472656 16.914062 21.171875 16.976562 20.859375 16.976562 L 18.652344 16.976562 L 18.652344 19.179688 C 18.652344 19.492188 18.59375 19.792969 18.472656 20.085938 C 18.355469 20.375 18.183594 20.628906 17.960938 20.851562 C 17.738281 21.074219 17.484375 21.246094 17.191406 21.363281 C 16.902344 21.484375 16.601562 21.546875 16.289062 21.546875 L 15.796875 21.546875 C 15.484375 21.546875 15.183594 21.484375 14.890625 21.363281 C 14.601562 21.246094 14.347656 21.074219 14.125 20.851562 C 13.902344 20.628906 13.730469 20.375 13.609375 20.085938 C 13.492188 19.792969 13.429688 19.492188 13.429688 19.179688 L 13.429688 16.976562 L 11.226562 16.976562 C 10.914062 16.976562 10.613281 16.914062 10.320312 16.792969 C 10.03125 16.675781 9.777344 16.503906 9.554688 16.28125 C 9.332031 16.058594 9.160156 15.804688 9.039062 15.515625 C 8.921875 15.222656 8.859375 14.921875 8.859375 14.609375 L 8.859375 14.117188 C 8.859375 13.804688 8.921875 13.503906 9.039062 13.214844 C 9.160156 12.921875 9.332031 12.667969 9.554688 12.445312 C 9.777344 12.222656 10.03125 12.050781 10.320312 11.933594 C 10.613281 11.8125 10.914062 11.753906 11.226562 11.753906 L 13.429688 11.753906 L 13.429688 9.546875 C 13.429688 9.234375 13.492188 8.933594 13.609375 8.644531 C 13.730469 8.351562 13.902344 8.097656 14.125 7.875 C 14.347656 7.652344 14.601562 7.480469 14.890625 7.363281 C 15.183594 7.242188 15.484375 7.183594 15.796875 7.183594 L 16.289062 7.183594 C 16.601562 7.183594 16.902344 7.242188 17.191406 7.363281 C 17.484375 7.480469 17.738281 7.652344 17.960938 7.875 C 18.183594 8.097656 18.355469 8.351562 18.472656 8.644531 C 18.59375 8.933594 18.652344 9.234375 18.652344 9.546875 L 18.652344 11.753906 L 20.859375 11.753906 C 21.171875 11.753906 21.472656 11.8125 21.761719 11.933594 C 22.054688 12.050781 22.308594 12.222656 22.53125 12.445312 C 22.753906 12.667969 22.925781 12.921875 23.042969 13.214844 C 23.164062 13.503906 23.222656 13.804688 23.222656 14.117188 Z M 39.84375 16.222656 C 39.523438 16.222656 39.21875 16.164062 38.925781 16.042969 C 38.632812 15.921875 38.375 15.746094 38.148438 15.523438 C 37.925781 15.296875 37.75 15.039062 37.628906 14.746094 C 37.507812 14.453125 37.449219 14.148438 37.449219 13.832031 C 37.449219 13.511719 37.507812 13.207031 37.628906 12.914062 C 37.753906 12.621094 37.925781 12.363281 38.148438 12.136719 C 38.375 11.914062 38.632812 11.742188 38.925781 11.617188 C 39.21875 11.496094 39.523438 11.4375 39.84375 11.4375 C 40.160156 11.4375 40.464844 11.496094 40.757812 11.617188 C 41.050781 11.742188 41.308594 11.914062 41.535156 12.136719 C 41.757812 12.363281 41.933594 12.621094 42.054688 12.914062 C 42.175781 13.207031 42.234375 13.511719 42.234375 13.832031 C 42.234375 14.148438 42.175781 14.453125 42.054688 14.746094 C 41.933594 15.039062 41.757812 15.300781 41.535156 15.523438 C 41.308594 15.746094 41.050781 15.921875 40.757812 16.042969 C 40.464844 16.164062 40.160156 16.222656 39.84375 16.222656 Z M 44.628906 21.011719 C 44.3125 21.011719 44.007812 20.953125 43.714844 20.832031 C 43.421875 20.707031 43.160156 20.535156 42.9375 20.3125 C 42.710938 20.085938 42.539062 19.828125 42.417969 19.535156 C 42.296875 19.242188 42.234375 18.9375 42.234375 18.617188 C 42.234375 18.300781 42.296875 17.996094 42.417969 17.703125 C 42.539062 17.410156 42.710938 17.148438 42.9375 16.925781 C 43.160156 16.703125 43.421875 16.527344 43.714844 16.40625 C 44.007812 16.285156 44.3125 16.222656 44.628906 16.222656 C 44.949219 16.222656 45.253906 16.285156 45.546875 16.40625 C 45.839844 16.527344 46.097656 16.699219 46.324219 16.925781 C 46.546875 17.148438 46.71875 17.410156 46.839844 17.703125 C 46.964844 17.996094 47.023438 18.300781 47.023438 18.617188 C 47.023438 18.9375 46.964844 19.242188 46.839844 19.535156 C 46.71875 19.828125 46.546875 20.085938 46.324219 20.3125 C 46.097656 20.535156 45.839844 20.707031 45.546875 20.832031 C 45.253906 20.953125 44.949219 21.011719 44.628906 21.011719 Z M 49.417969 16.222656 C 49.101562 16.222656 48.796875 16.164062 48.5 16.042969 C 48.207031 15.921875 47.949219 15.746094 47.726562 15.523438 C 47.5 15.300781 47.328125 15.039062 47.207031 14.746094 C 47.085938 14.453125 47.023438 14.148438 47.023438 13.832031 C 47.023438 13.511719 47.085938 13.207031 47.207031 12.914062 C 47.328125 12.621094 47.5 12.363281 47.726562 12.136719 C 47.949219 11.914062 48.207031 11.742188 48.5 11.617188 C 48.796875 11.496094 49.101562 11.4375 49.417969 11.4375 C 49.734375 11.4375 50.039062 11.496094 50.332031 11.617188 C 50.628906 11.742188 50.886719 11.914062 51.109375 12.136719 C 51.335938 12.363281 51.507812 12.621094 51.628906 12.914062 C 51.75 13.207031 51.8125 13.511719 51.8125 13.832031 C 51.8125 14.148438 51.75 14.453125 51.628906 14.746094 C 51.507812 15.039062 51.335938 15.300781 51.109375 15.523438 C 50.886719 15.746094 50.628906 15.921875 50.332031 16.042969 C 50.039062 16.164062 49.734375 16.222656 49.417969 16.222656 Z M 49.417969 16.222656 " fill-opacity="1" fill-rule="nonzero"/></g></svg>